<svg width="79" height="34" viewBox="0 0 79 34" fill="none" xmlns="http://www.w3.org/2000/svg">
<g clip-path="url(#clip0_4867_7653)">
<mask id="mask0_4867_7653" style="mask-type:luminance" maskUnits="userSpaceOnUse" x="2" y="20" width="18" height="10">
<path d="M19.45 20.4951C19.3482 20.5807 19.2441 20.6616 19.1378 20.7402L16.4525 23.4253C12.1875 27.6911 5.29388 26.877 2.02344 22.3372C2.42578 23.0501 2.88483 23.7295 3.39614 24.3689C3.49791 24.4972 3.60199 24.6221 3.70839 24.747C3.72573 24.769 3.74308 24.7898 3.76158 24.8106C4.12175 25.2295 4.50433 25.6287 4.90763 26.0063C6.43167 27.3828 8.22123 28.4331 10.1663 29.0926C12.1113 29.752 14.1706 30.0066 16.2177 29.8407C16.8364 26.0884 18.5029 22.5095 19.7842 20.1875C19.6755 20.2927 19.5633 20.3968 19.4454 20.4951" fill="white"/>
</mask>
<g mask="url(#mask0_4867_7653)">
<path d="M9.82915 11.3701L-2.92188 25.7812L11.9938 38.9764L24.7448 24.5652L9.82915 11.3701Z" fill="url(#paint0_linear_4867_7653)"/>
</g>
<mask id="mask1_4867_7653" style="mask-type:luminance" maskUnits="userSpaceOnUse" x="-23" y="-46" width="125" height="126">
<path d="M101.928 -45.5625H-22.9688V79.3234H101.928V-45.5625Z" fill="white"/>
</mask>
<g mask="url(#mask1_4867_7653)">
<path d="M29.8267 17.4182C29.8822 17.0979 29.9319 16.7764 29.9666 16.4538C29.9851 16.2907 30.0002 16.1289 30.014 15.9658C30.0131 15.9379 30.015 15.91 30.0198 15.8826C30.0701 15.2285 30.0782 14.5719 30.0441 13.9168C30.046 13.8614 30.0425 13.806 30.0337 13.7514L30.0268 13.6728C29.3456 6.10559 22.9898 0.0613474 15.2346 -0.0450369C12.0666 -0.0946259 8.96433 0.86031 6.37271 2.6828V2.68858C3.34364 4.84277 1.22171 8.04419 0.417787 11.673C-0.386138 15.3018 0.185133 19.0997 2.02099 22.3315C5.29143 26.8725 12.1839 27.6854 16.45 23.4196L19.1353 20.7346C19.0046 20.8317 18.8716 20.9254 18.7363 21.0133C17.2394 21.9761 15.4338 22.3374 13.6815 22.0249C11.9293 21.7125 10.36 20.7492 9.28817 19.3283C8.21638 17.9074 7.72136 16.1339 7.90237 14.3634C8.08338 12.5929 8.92702 10.9563 10.2642 9.78164C10.3 9.75042 10.3324 9.71919 10.3682 9.68913C11.3311 8.87974 12.4929 8.3425 13.7332 8.13309C14.9736 7.92367 16.2473 8.04969 17.4226 8.49809H17.4342L17.492 8.5189C18.6627 8.92719 19.7015 9.6439 20.4988 10.5934C21.4258 11.7391 21.9658 13.1491 22.0412 14.6209C22.1166 16.0927 21.7236 17.5505 20.9185 18.785C20.6962 19.1451 20.4419 19.4845 20.1588 19.7991C20.052 19.9254 19.9381 20.0454 19.8176 20.1587H19.8049L19.7899 20.1726C18.5085 22.4934 16.8421 26.07 16.2234 29.8247C19.5472 29.5622 22.6888 28.2001 25.1522 25.9534C27.6156 23.7068 29.2603 20.7036 29.8267 17.4182Z" fill="#2DA9E1"/>
<path d="M29.9922 13.6641C29.9922 13.7184 29.998 13.7728 30.0027 13.8271L29.9922 13.6641Z" fill="#1C84C1"/>
<path d="M29.9846 13.5859C29.9836 13.6123 29.9856 13.6386 29.9905 13.6646C29.9914 13.6382 29.9895 13.6119 29.9846 13.5859Z" fill="#00B2B9"/>
<path d="M33.4766 28.3316C33.5459 28.3686 33.6177 28.401 33.687 28.4357C33.6165 28.401 33.5471 28.3651 33.4777 28.3281" fill="#2DA9E1"/>
<path d="M69.5018 10.5263C69.5885 10.6281 69.6683 10.7333 69.7469 10.8385L72.4322 13.5201C76.6984 17.7859 75.8854 24.6789 71.344 27.9479C72.0571 27.5444 72.7366 27.0842 73.3759 26.5718C73.5043 26.4701 73.6303 26.3649 73.7552 26.2596L73.8176 26.2064C75.594 24.6863 76.9784 22.761 77.854 20.5932C78.7296 18.4254 79.0706 16.0787 78.8482 13.7514C75.1001 13.1362 71.5152 11.4699 69.1953 10.1875C69.2994 10.2974 69.4035 10.4095 69.5018 10.5263Z" fill="#2DA9E1"/>
</g>
<mask id="mask2_4867_7653" style="mask-type:luminance" maskUnits="userSpaceOnUse" x="48" y="-1" width="31" height="31">
<path d="M62.9257 -0.057308C62.8708 -0.0592163 62.8158 -0.055731 62.7615 -0.0469013L62.6817 -0.0411209C55.1139 0.641126 49.0703 6.99644 48.9628 14.7498C48.9134 17.918 49.8688 21.0204 51.692 23.612V23.6051C53.8456 26.6345 57.0472 28.7567 60.6763 29.5606C64.3054 30.3645 68.1037 29.7929 71.3354 27.9565C75.8768 24.6875 76.6898 17.7944 72.4237 13.5287L69.7384 10.8436C69.8367 10.9754 69.9292 11.1073 70.0171 11.2437C70.968 12.7399 71.3206 14.5393 71.0048 16.2837C70.6889 18.0281 69.7277 19.5897 68.3125 20.6575C66.8973 21.7254 65.1318 22.2212 63.3675 22.0464C61.6032 21.8715 59.9695 21.0388 58.7914 19.714C58.7602 19.6793 58.729 19.6458 58.6989 19.6099C57.8896 18.647 57.3526 17.4853 57.1433 16.2451C56.9341 15.0048 57.0603 13.7312 57.5089 12.5562V12.5446C57.517 12.5261 57.5228 12.5064 57.5309 12.4879C57.9369 11.3163 58.6521 10.2763 59.6009 9.47796C60.9343 8.4501 62.5857 7.92195 64.2681 7.98533C65.9505 8.04871 67.5575 8.69961 68.8098 9.82487C68.937 9.93303 69.0575 10.0489 69.1706 10.1718C69.1718 10.1763 69.1737 10.1806 69.1764 10.1845L69.1891 10.1984C71.5112 11.4808 75.087 13.1471 78.842 13.7657C78.5801 10.4398 77.2169 7.29614 74.9679 4.83182C72.7188 2.36749 69.7124 0.723185 66.424 0.158929C66.1037 0.103424 65.7822 0.0548561 65.4595 0.0201656C65.2976 0.000507602 65.1346 -0.013369 64.9715 -0.0272453L64.8894 -0.0341831C64.5031 -0.0642482 64.1169 -0.078125 63.7329 -0.078125C63.4635 -0.078125 63.1929 -0.0711842 62.9234 -0.057308" fill="white"/>
</mask>
<g mask="url(#mask2_4867_7653)">
<path d="M68.075 -14.3569L34.4297 10.875L59.6936 44.5572L93.3388 19.3253L68.075 -14.3569Z" fill="url(#paint1_linear_4867_7653)"/>
</g>
<mask id="mask3_4867_7653" style="mask-type:luminance" maskUnits="userSpaceOnUse" x="24" y="3" width="17" height="31">
<path d="M29.9795 3.42185C28.3675 4.76373 27.0539 6.42783 26.123 8.3073C25.1922 10.1868 24.6646 12.2401 24.5742 14.3355C24.5661 14.4511 24.5615 14.5668 24.5627 14.6824V33.8408C24.7466 33.857 24.9316 33.8663 25.1189 33.8697C26.773 33.7573 28.3547 33.1483 29.6569 32.1222C30.9591 31.0962 31.9212 29.701 32.4173 28.1192C32.4797 27.9157 32.5329 27.7098 32.5838 27.5017C32.6347 27.1525 32.6602 26.8 32.6601 26.4471V15.5473C32.6378 15.2111 32.6397 14.8738 32.6659 14.5379C32.6761 13.6185 32.9146 12.7162 33.3598 11.9118C33.7837 10.9733 34.4129 10.1419 35.2009 9.47881C36.615 8.3333 38.4219 7.78778 40.2337 7.95937C39.9597 7.86108 39.5098 7.69919 39.4705 7.68763C36.9529 6.97878 33.1632 5.63395 30.0061 3.39062C29.9956 3.39806 29.9859 3.40659 29.9772 3.41606" fill="white"/>
</mask>
<g mask="url(#mask3_4867_7653)">
<path d="M29.2552 -3.77697L10.6094 24.7578L35.551 41.0529L54.1968 12.5181L29.2552 -3.77697Z" fill="url(#paint2_linear_4867_7653)"/>
</g>
<path d="M54.2139 17.8651V17.8535C54.2439 17.7032 54.2694 17.5517 54.2948 17.4002L54.3087 17.3147C54.3307 17.1678 54.3527 17.0198 54.3712 16.8718V16.8406C54.3908 16.6798 54.4082 16.5179 54.4232 16.3572C54.4203 16.333 54.4203 16.3086 54.4232 16.2844C54.4348 16.1514 54.444 16.0196 54.4521 15.8866L54.459 15.7709C54.4671 15.6287 54.4729 15.4876 54.4764 15.3454V14.7083C54.4764 14.5926 54.4764 14.477 54.466 14.3613C54.4689 14.3132 54.4689 14.2649 54.466 14.2168C54.459 14.0734 54.4498 13.9289 54.4382 13.7843V13.7612C54.1852 10.5661 52.9145 7.53623 50.8128 5.11632C50.6775 4.96021 50.5387 4.80757 50.3987 4.65378C50.3479 4.59943 50.2958 4.54739 50.2438 4.4942C50.1559 4.40285 50.0668 4.3115 49.9766 4.22361C49.9084 4.15655 49.839 4.09063 49.7696 4.02472L49.5511 3.82236C49.4678 3.7472 49.3845 3.67204 49.3001 3.59919L49.1509 3.46967C48.6385 3.03827 48.0976 2.6419 47.5319 2.28326C45.853 1.22164 43.9813 0.501383 42.0237 0.163667C41.7034 0.108162 41.3819 0.0595938 41.0592 0.0249032C40.8973 0.00524525 40.7343 -0.00863139 40.5712 -0.0225076L40.4891 -0.0294454C39.9504 -0.0697163 39.41 -0.0816815 38.8701 -0.0652921C35.3418 -0.0988262 26.2891 -0.0560393 26.2891 -0.0560393C27.261 1.33363 28.4509 2.55736 29.8128 3.56797C32.904 5.82748 36.6566 7.20122 39.2309 7.94707C39.5714 7.92952 39.9127 7.93686 40.252 7.96904C40.385 7.98176 40.5169 7.99795 40.6487 8.0176H40.6695C40.799 8.03842 40.9274 8.06155 41.0546 8.0893H41.0754C41.205 8.11821 41.3333 8.14943 41.4605 8.18528L41.5022 8.19684C41.6178 8.23153 41.7439 8.26853 41.863 8.31248L41.8838 8.31941C42.0052 8.3622 42.1255 8.40845 42.2458 8.45702L42.3082 8.48361C42.4239 8.53102 42.5326 8.5819 42.6436 8.63625L42.6621 8.64435C42.7777 8.69985 42.8934 8.75998 42.9986 8.82243L43.0715 8.86405C43.1871 8.92881 43.2912 8.99472 43.3988 9.06526C43.7594 9.28647 44.0989 9.54039 44.413 9.82383C44.5402 9.93198 44.6607 10.0478 44.7738 10.1707C44.775 10.1753 44.7769 10.1796 44.7796 10.1835L44.7923 10.1973C44.8964 10.3072 45.0004 10.4193 45.0987 10.5361C45.197 10.6529 45.2653 10.7431 45.3439 10.8484C45.4422 10.979 45.5347 11.112 45.6226 11.2484C46.5822 12.7452 46.9411 14.5491 46.6275 16.2991C46.314 18.0491 45.3511 19.6162 43.9315 20.6867C42.512 21.7573 40.7405 22.2523 38.9716 22.0729C37.2026 21.8934 35.5667 21.0526 34.3912 19.7187C34.3611 19.684 34.3287 19.6505 34.2986 19.6147C34.2154 19.5152 34.1356 19.4123 34.0569 19.3094L34.0037 19.2365C33.8531 19.0307 33.7138 18.8168 33.5863 18.5959C33.5712 18.5705 33.5562 18.545 33.5423 18.5196C33.4201 18.3014 33.3097 18.0767 33.2116 17.8466L33.1769 17.7645C33.0833 17.5377 33.0019 17.3061 32.9329 17.0707C32.9236 17.0418 32.9155 17.0129 32.9074 16.9828C32.8751 16.8672 32.845 16.7515 32.8184 16.6359C32.7383 16.2789 32.6857 15.9163 32.6611 15.5512V26.451C32.6609 26.8039 32.6358 27.1563 32.5859 27.5056C32.5374 27.7137 32.4815 27.9196 32.4183 28.1231L32.6276 28.2318L32.7432 28.2908L32.771 28.3046L32.8392 28.3405L32.919 28.3798L33.0161 28.4261L33.2532 28.5417L33.4267 28.6215C33.5423 28.6735 33.658 28.7244 33.7817 28.7741L33.9448 28.84C34.0431 28.8793 34.1414 28.9187 34.242 28.9557L34.4178 29.0204L34.6791 29.1129L34.8572 29.1731L35.1637 29.269L35.2955 29.3095C35.4366 29.3511 35.5788 29.3905 35.7222 29.4251L35.8807 29.4645C35.9801 29.4899 36.0796 29.5142 36.1813 29.5373L36.3525 29.5755C36.4589 29.5986 36.5653 29.6206 36.6728 29.6414L36.7769 29.6622H36.8128C36.9885 29.6946 37.1597 29.7235 37.3436 29.7501L37.4245 29.7616C37.6026 29.7871 37.7819 29.8091 37.9634 29.8287H37.9762C38.1381 29.8461 38.2988 29.8611 38.4619 29.8727C38.9395 29.9073 39.4125 29.9166 39.882 29.9062H40.0913C40.237 29.9008 40.3816 29.8927 40.525 29.8819L40.6591 29.8738C40.8199 29.8622 40.9795 29.8461 41.139 29.8299C41.1706 29.8314 41.2021 29.8283 41.2327 29.8206C41.3888 29.8033 41.545 29.7813 41.6953 29.7593L41.804 29.7443C41.8884 29.7316 41.9728 29.7154 42.0573 29.7004H42.0711C42.5936 29.6093 43.1108 29.4908 43.6208 29.3454L43.7191 29.3164C43.8671 29.2725 44.0151 29.2274 44.1608 29.1788L44.3262 29.1245L44.5575 29.0424C44.6732 29.0019 44.7888 28.9591 44.9044 28.9163L45.0814 28.8458C45.1855 28.8042 45.2872 28.7625 45.389 28.7186L45.5289 28.6585C45.6538 28.6041 45.7776 28.5428 45.9013 28.4885L46.0089 28.4376C46.1465 28.3717 46.2818 28.3046 46.4159 28.2341L46.4957 28.1925C46.6391 28.1173 46.7814 28.0398 46.9213 27.9612C47.0612 27.8826 47.2335 27.7796 47.3839 27.6848L47.5423 27.5865C47.6418 27.5229 47.7401 27.4593 47.8395 27.3934L48.0222 27.2778C48.1552 27.1864 48.2859 27.0939 48.4154 26.9991C48.597 26.8673 48.7739 26.732 48.9486 26.5921C49.0769 26.4903 49.203 26.3851 49.3279 26.2799L49.3903 26.2267C49.808 25.8663 50.2056 25.4834 50.5815 25.0796C52.1696 23.3235 53.3189 21.2161 53.9352 18.9301L53.9629 18.8226V18.8145C53.9849 18.7324 54.0057 18.6491 54.0254 18.567C54.0404 18.5046 54.0543 18.4433 54.0693 18.3808L54.104 18.2236V18.2155C54.1225 18.1311 54.141 18.0466 54.1572 17.9622C54.1588 17.9426 54.1627 17.9232 54.1688 17.9044V17.8928" fill="#2DA9E1"/>
</g>
<defs>
<linearGradient id="paint0_linear_4867_7653" x1="19.2064" y1="15.7758" x2="-1.00634" y2="38.6241" gradientUnits="userSpaceOnUse">
<stop stop-color="#233163"/>
<stop offset="0.09" stop-color="#233163"/>
<stop offset="0.39" stop-color="#195491"/>
<stop offset="0.68" stop-color="#1072B9"/>
<stop offset="0.71" stop-color="#1072B9"/>
<stop offset="1" stop-color="#1072B9"/>
</linearGradient>
<linearGradient id="paint1_linear_4867_7653" x1="49.4859" y1="25.9526" x2="73.41" y2="8.00789" gradientUnits="userSpaceOnUse">
<stop stop-color="#233163"/>
<stop offset="0.15" stop-color="#233163"/>
<stop offset="0.31" stop-color="#1E4178"/>
<stop offset="0.6" stop-color="#175C9C"/>
<stop offset="0.84" stop-color="#126CB1"/>
<stop offset="1" stop-color="#1072B9"/>
</linearGradient>
<linearGradient id="paint2_linear_4867_7653" x1="19.0634" y1="38.7871" x2="35.5711" y2="13.5201" gradientUnits="userSpaceOnUse">
<stop stop-color="#233163"/>
<stop offset="0.15" stop-color="#233163"/>
<stop offset="0.31" stop-color="#1E4178"/>
<stop offset="0.6" stop-color="#175C9C"/>
<stop offset="0.84" stop-color="#126CB1"/>
<stop offset="1" stop-color="#1072B9"/>
</linearGradient>
<clipPath id="clip0_4867_7653">
<rect width="79" height="34" fill="white"/>
</clipPath>
</defs>
</svg>
